<svg xmlns="http://www.w3.org/2000/svg" width="24" height="24" viewBox="0 0 24 24" fill="none" stroke="currentColor" stroke-width="1.8" stroke-linecap="round" stroke-linejoin="round">
  <path d="M3.5 15.2c1.2-4.8 5.1-7.7 9.6-7.7 3.9 0 6.5 2.2 7.4 5.7.4 1.5-.6 3.2-2.2 3.5-4.1.7-8.1.8-12 .1-1.8-.4-3.2-.8-2.8-1.6Z"/>
  <path d="M6.8 14c.4-1.6 1.4-3 2.7-4"/>
  <path d="M10.2 14.9c.5-2 1.7-3.8 3.3-5.1"/>
  <path d="M13.9 14.8c.6-1.8 1.7-3.2 3.1-4"/>
  <path d="M5.7 17.1c3.9 1.1 8.6 1.1 12.8 0"/>
</svg>
