<svg xmlns="http://www.w3.org/2000/svg" width="24" height="24" viewBox="0 0 24 24" fill="none" stroke="currentColor" stroke-width="1.8" stroke-linecap="round" stroke-linejoin="round">
  <path d="M5.4 9.2h13.2c.9 0 1.7.8 1.7 1.7v.3c0 .9-.8 1.7-1.7 1.7H5.4c-.9 0-1.7-.8-1.7-1.7v-.3c0-.9.8-1.7 1.7-1.7Z"/>
  <path d="M4.7 13h14.6v4.1c0 1-.8 1.7-1.7 1.7H6.4c-1 0-1.7-.8-1.7-1.7V13Z"/>
  <path d="M5.2 9.2 8.6 5.7c.5-.5 1.1-.7 1.8-.7h3.2c.7 0 1.3.3 1.8.7l3.4 3.5"/>
  <path d="M7.4 15.9c1.4-1 2.8-1 4.2 0 1.4 1 2.8 1 4.2 0"/>
  <path d="M9 7.1h.1"/>
  <path d="M12 6.6h.1"/>
  <path d="M15 7.1h.1"/>
</svg>
